<svg width="100" height="55" viewBox="0 0 100 55" fill="none" xmlns="http://www.w3.org/2000/svg">
<path d="M0.631039 25.0431V5.50592H4.76785V9.23574H5.85464L4.55751 11.5092C4.55751 9.40151 5.02494 7.81485 5.95981 6.74919C6.89469 5.68353 8.27363 5.1507 10.0966 5.1507C12.1767 5.1507 13.8127 5.80194 15.0047 7.10441C16.1967 8.40689 16.7927 10.2067 16.7927 12.5038V13.9247H12.2001V12.8235C12.2001 11.5684 11.8729 10.5974 11.2185 9.91066C10.5874 9.2239 9.71099 8.88052 8.58914 8.88052C7.44393 8.88052 6.5558 9.2239 5.92476 9.91066C5.31709 10.5974 5.01326 11.5684 5.01326 12.8235V25.0431H0.631039Z" fill="black"/>
<path d="M28.8739 25.3628C27.2378 25.3628 25.8122 25.0549 24.5968 24.4392C23.4049 23.7998 22.47 22.9117 21.7922 21.775C21.1378 20.6146 20.8106 19.253 20.8106 17.69V12.859C20.8106 11.296 21.1378 9.94618 21.7922 8.80947C22.47 7.64909 23.4049 6.76103 24.5968 6.14532C25.8122 5.50592 27.2378 5.18622 28.8739 5.18622C30.5333 5.18622 31.959 5.50592 33.1509 6.14532C34.3429 6.76103 35.2661 7.64909 35.9205 8.80947C36.5983 9.94618 36.9372 11.2842 36.9372 12.8235V17.69C36.9372 19.253 36.5983 20.6146 35.9205 21.775C35.2661 22.9117 34.3429 23.7998 33.1509 24.4392C31.959 25.0549 30.5333 25.3628 28.8739 25.3628ZM28.8739 21.4909C30.0425 21.4909 30.9423 21.1712 31.5733 20.5318C32.2277 19.8687 32.5549 18.9214 32.5549 17.69V12.859C32.5549 11.6039 32.2277 10.6566 31.5733 10.0172C30.9423 9.37783 30.0425 9.05813 28.8739 9.05813C27.7287 9.05813 26.8288 9.37783 26.1744 10.0172C25.52 10.6566 25.1928 11.6039 25.1928 12.859V17.69C25.1928 18.9214 25.52 19.8687 26.1744 20.5318C26.8288 21.1712 27.7287 21.4909 28.8739 21.4909Z" fill="black"/>
<path d="M49.8948 25.3628C48.2588 25.3628 46.8331 25.0549 45.6178 24.4392C44.4258 23.7998 43.4909 22.9117 42.8132 21.775C42.1588 20.6146 41.8315 19.253 41.8315 17.69V12.859C41.8315 11.296 42.1588 9.94618 42.8132 8.80947C43.4909 7.64909 44.4258 6.76103 45.6178 6.14532C46.8331 5.50592 48.2588 5.18622 49.8948 5.18622C51.5542 5.18622 52.9799 5.50592 54.1719 6.14532C55.3638 6.76103 56.287 7.64909 56.9414 8.80947C57.6192 9.94618 57.9581 11.2842 57.9581 12.8235V17.69C57.9581 19.253 57.6192 20.6146 56.9414 21.775C56.287 22.9117 55.3638 23.7998 54.1719 24.4392C52.9799 25.0549 51.5542 25.3628 49.8948 25.3628ZM49.8948 21.4909C51.0634 21.4909 51.9632 21.1712 52.5943 20.5318C53.2487 19.8687 53.5759 18.9214 53.5759 17.69V12.859C53.5759 11.6039 53.2487 10.6566 52.5943 10.0172C51.9632 9.37783 51.0634 9.05813 49.8948 9.05813C48.7496 9.05813 47.8498 9.37783 47.1954 10.0172C46.541 10.6566 46.2138 11.6039 46.2138 12.859V17.69C46.2138 18.9214 46.541 19.8687 47.1954 20.5318C47.8498 21.1712 48.7496 21.4909 49.8948 21.4909Z" fill="black"/>
<path d="M73.0192 25.0431C71.1729 25.0431 69.7238 24.5221 68.6721 23.4801C67.6437 22.4381 67.1295 21.0054 67.1295 19.1819V9.51992H61.9059V5.50592H67.1295V0H71.5468V5.50592H78.944V9.51992H71.5468V19.1819C71.5468 20.4133 72.1428 21.0291 73.3348 21.0291H78.5934V25.0431H73.0192Z" fill="black"/>
<path d="M0 52.6555V48.5705L10.1667 43.8105C10.6342 43.5974 11.0899 43.4198 11.534 43.2777C12.0014 43.1119 12.3637 43.0054 12.6208 42.958C12.3637 42.9107 12.0014 42.8278 11.534 42.7094C11.0666 42.5673 10.6108 42.3897 10.1667 42.1765L0 37.3811V33.225L15.7059 40.7201V45.1604L0 52.6555Z" fill="#D43C3C"/>
<path d="M21.056 54.6448V35.1076H25.333V38.8375H26.525L25.333 39.8676C25.333 38.2573 25.7888 37.0022 26.7003 36.1023C27.6352 35.2024 28.9089 34.7524 30.5216 34.7524C32.4147 34.7524 33.9222 35.3918 35.044 36.6706C36.1893 37.9494 36.7619 39.6663 36.7619 41.8213V54.6448H32.3797V42.2831C32.3797 41.099 32.0758 40.1873 31.4682 39.5479C30.8605 38.9085 30.0074 38.5888 28.9089 38.5888C27.8338 38.5888 26.9808 38.9203 26.3497 39.5834C25.7421 40.2465 25.4382 41.1938 25.4382 42.4252V54.6448H21.056Z" fill="black"/>
<path d="M49.8948 54.9645C48.2588 54.9645 46.8331 54.6566 45.6178 54.0409C44.4258 53.4015 43.4909 52.5135 42.8132 51.3768C42.1588 50.2164 41.8315 48.8547 41.8315 47.2917V42.4607C41.8315 40.8977 42.1588 39.5479 42.8132 38.4112C43.4909 37.2508 44.4258 36.3628 45.6178 35.747C46.8331 35.1076 48.2588 34.7879 49.8948 34.7879C51.5542 34.7879 52.9799 35.1076 54.1719 35.747C55.3638 36.3628 56.287 37.2508 56.9414 38.4112C57.6192 39.5479 57.9581 40.8859 57.9581 42.4252V47.2917C57.9581 48.8547 57.6192 50.2164 56.9414 51.3768C56.287 52.5135 55.3638 53.4015 54.1719 54.0409C52.9799 54.6566 51.5542 54.9645 49.8948 54.9645ZM49.8948 51.0926C51.0634 51.0926 51.9632 50.7729 52.5943 50.1335C53.2487 49.4704 53.5759 48.5231 53.5759 47.2917V42.4607C53.5759 41.2056 53.2487 40.2583 52.5943 39.6189C51.9632 38.9795 51.0634 38.6598 49.8948 38.6598C48.7496 38.6598 47.8498 38.9795 47.1954 39.6189C46.541 40.2583 46.2138 41.2056 46.2138 42.4607V47.2917C46.2138 48.5231 46.541 49.4704 47.1954 50.1335C47.8498 50.7729 48.7496 51.0926 49.8948 51.0926Z" fill="black"/>
<path d="M73.0192 54.6448C71.1729 54.6448 69.7238 54.1238 68.6721 53.0818C67.6437 52.0398 67.1295 50.6071 67.1295 48.7836V39.1216H61.9059V35.1076H67.1295V29.6017H71.5468V35.1076H78.944V39.1216H71.5468V48.7836C71.5468 50.0151 72.1428 50.6308 73.3348 50.6308H78.5934V54.6448H73.0192Z" fill="black"/>
<path d="M91.9718 55C90.3357 55 88.9101 54.6803 87.6947 54.0409C86.4794 53.4015 85.5328 52.5135 84.8551 51.3768C84.2006 50.2164 83.8734 48.8665 83.8734 47.3272V42.4252C83.8734 40.8859 84.2006 39.5479 84.8551 38.4112C85.5328 37.2508 86.4794 36.3509 87.6947 35.7115C88.9101 35.0721 90.3357 34.7524 91.9718 34.7524C93.5844 34.7524 94.9867 35.0721 96.1787 35.7115C97.394 36.3509 98.3289 37.2508 98.9833 38.4112C99.6611 39.5479 100 40.8859 100 42.4252V45.9419H88.1154V47.3272C88.1154 48.7008 88.4426 49.7427 89.097 50.4532C89.7514 51.1399 90.7214 51.4833 92.0068 51.4833C92.9884 51.4833 93.7831 51.3175 94.3908 50.986C94.9984 50.6308 95.3841 50.1216 95.5477 49.4586H99.8598C99.5326 51.1399 98.6444 52.4898 97.1954 53.5081C95.7697 54.5027 94.0285 55 91.9718 55ZM95.758 43.4553V42.3897C95.758 41.0398 95.4425 40.0097 94.8115 39.2992C94.1804 38.5651 93.2339 38.1981 91.9718 38.1981C90.7097 38.1981 89.7514 38.5651 89.097 39.2992C88.4426 40.0334 88.1154 41.0754 88.1154 42.4252V43.1712L96.0735 43.1001L95.758 43.4553Z" fill="black"/>
</svg>
